# 3ds Max Wavefront OBJ Exporter v0.99 - (c)2007 guruware
# File Created: 27.05.2023 15:26:46

mtllib CafeVendedora.mtl

#
# object Cube
#

v  -0.7625 0.0618 -0.9890
v  -0.7625 5.3751 -1.0109
v  0.7625 5.3751 -1.0109
v  0.7625 0.0618 -0.9890
v  -0.7625 5.4335 0.9890
v  0.7625 5.4335 0.9890
v  -0.7625 0.1202 1.0109
v  0.7625 0.1202 1.0109
# 8 vertices

vn 0.0000 -0.0041 -1.0000
vn 0.0000 0.9996 -0.0292
vn -1.0000 0.0000 -0.0000
vn 0.0000 0.0041 1.0000
vn 1.0000 0.0000 -0.0000
vn 0.0000 -0.9996 0.0292
# 6 vertex normals

vt -0.0002 0.4988 0.0000
vt -0.0002 0.1185 0.0000
vt 0.3143 0.1168 0.0000
vt 0.3143 0.4988 0.0000
vt 0.3143 -0.0000 0.0000
vt 0.6893 -0.0000 0.0000
vt 0.6893 0.1168 0.0000
vt 0.3179 0.9988 0.0000
vt 0.3143 0.6176 0.0000
vt 0.6893 0.6176 0.0000
vt 0.6893 0.9988 0.0000
vt 0.6893 0.4988 0.0000
vt 1.0000 0.1185 0.0000
vt 1.0000 0.4988 0.0000
# 14 texture coords

o Cube
g Cube
usemtl Material
s off
f 1/1/1 2/2/1 3/3/1 
f 3/3/1 4/4/1 1/1/1 
f 3/3/2 2/5/2 5/6/2 
f 5/6/2 6/7/2 3/3/2 
f 2/8/3 1/9/3 7/10/3 
f 7/10/3 5/11/3 2/8/3 
f 8/12/4 6/7/4 5/13/4 
f 5/13/4 7/14/4 8/12/4 
f 8/12/5 4/4/5 3/3/5 
f 3/3/5 6/7/5 8/12/5 
f 1/9/6 4/4/6 8/12/6 
f 8/12/6 7/10/6 1/9/6 
# 12 faces

