# 3ds Max Wavefront OBJ Exporter v0.99 - (c)2007 guruware
# File Created: 27.03.2023 12:07:58

mtllib Cofre.mtl

#
# object Cofre
#

v  19.3322 1.5178 11.4542
v  16.1225 1.3922 11.4542
v  16.2658 1.1446 12.0960
v  16.4305 0.8601 12.8335
v  19.9063 0.9382 13.1699
v  20.0422 0.9467 13.2037
v  19.4488 1.6363 11.4542
v  22.0278 1.0365 13.3198
v  22.0278 1.6714 11.4542
v  24.0135 0.9467 13.2037
v  24.5224 1.6363 11.4542
v  24.1491 0.9382 13.1699
v  24.6417 1.5178 11.4542
v  27.8041 1.1692 12.0322
v  27.9331 1.3922 11.4542
v  27.6252 0.8601 12.8335
v  18.8400 1.9888 9.4799
v  15.7356 1.9667 9.4799
v  18.9373 2.1073 9.4799
v  22.0278 2.1425 9.4799
v  25.1184 2.1073 9.4799
v  25.2153 1.9888 9.4799
v  28.3200 1.9667 9.4799
v  18.3295 2.2555 7.5056
v  15.6208 2.2334 7.5056
v  18.4118 2.3740 7.5056
v  22.0278 2.4091 7.5056
v  25.6439 2.3740 7.5056
v  25.7258 2.2555 7.5056
v  28.4349 2.2334 7.5056
v  17.8822 2.4099 5.5313
v  15.4962 2.3298 5.5313
v  17.9342 2.5284 5.5313
v  22.0278 2.5636 5.5313
v  26.1215 2.5284 5.5313
v  26.1732 2.4099 5.5313
v  28.5595 2.3298 5.5313
v  17.1883 2.4068 3.5569
v  15.4962 2.3267 3.5569
v  17.2631 2.5253 3.5569
v  22.0278 2.5604 3.5569
v  26.7926 2.5253 3.5569
v  26.8670 2.4068 3.5569
v  28.5595 2.3267 3.5569
v  16.1992 2.5253 1.8451
v  15.4962 2.3267 1.5826
v  16.2891 2.5253 1.8451
v  22.0278 2.6457 2.2337
v  27.7666 2.5253 1.8451
v  27.8562 2.5253 1.8451
v  28.5595 2.3267 1.5826
# 51 vertices

vn -0.3198 0.9105 0.2623
vn -0.0209 0.9767 0.2135
vn -0.0286 0.9666 0.2545
vn -0.0329 0.9685 0.2469
vn -0.1058 0.9572 0.2696
vn -0.0620 0.9642 0.2578
vn -0.3088 0.9141 0.2627
vn -0.0000 0.9752 0.2215
vn 0.0001 0.9801 0.1986
vn 0.0632 0.9646 0.2562
vn 0.2978 0.9185 0.2601
vn 0.1021 0.9585 0.2661
vn 0.3193 0.9110 0.2610
vn 0.0345 0.9675 0.2507
vn 0.0205 0.9767 0.2136
vn 0.0445 0.9653 0.2573
vn -0.3629 0.9097 0.2019
vn -0.0056 0.9905 0.1375
vn -0.3524 0.9159 0.1921
vn 0.0000 0.9923 0.1240
vn 0.3554 0.9133 0.1991
vn 0.3595 0.9098 0.2074
vn 0.0056 0.9905 0.1375
vn -0.3966 0.9052 0.1527
vn -0.0113 0.9978 0.0659
vn -0.3964 0.9056 0.1511
vn -0.0000 0.9975 0.0713
vn 0.3973 0.9051 0.1513
vn 0.3975 0.9048 0.1528
vn 0.0113 0.9978 0.0659
vn -0.5094 0.8475 0.1494
vn -0.0275 0.9994 0.0185
vn -0.4758 0.8687 0.1377
vn -0.0000 0.9997 0.0258
vn 0.4770 0.8680 0.1380
vn 0.5106 0.8467 0.1497
vn 0.0275 0.9995 0.0185
vn -0.4319 0.8823 0.1870
vn -0.0553 0.9982 0.0245
vn -0.3970 0.9043 0.1567
vn -0.0000 0.9998 0.0212
vn 0.3979 0.9039 0.1571
vn 0.4328 0.8818 0.1874
vn 0.0553 0.9982 0.0245
vn -0.1039 0.9941 0.0295
vn -0.2087 0.9780 -0.0000
vn -0.0177 0.9991 0.0391
vn -0.0000 0.9994 0.0350
vn 0.0177 0.9991 0.0391
vn 0.1039 0.9942 0.0295
vn 0.2086 0.9780 -0.0000
# 51 vertex normals

o Cofre
g Cofre
usemtl 1___Default
s 4
f 1//1 2//2 3//3 
f 1//1 3//3 4//4 
f 1//1 4//4 5//5 
f 5//5 6//6 7//7 
f 7//7 1//1 5//5 
f 6//6 8//8 9//9 
f 9//9 7//7 6//6 
f 10//10 11//11 9//9 
f 9//9 8//8 10//10 
f 12//12 13//13 11//11 
f 11//11 10//10 12//12 
f 14//14 15//15 13//13 
f 14//14 13//13 12//12 
f 14//14 12//12 16//16 
f 2//2 1//1 17//17 
f 17//17 18//18 2//2 
f 1//1 7//7 19//19 
f 19//19 17//17 1//1 
f 7//7 9//9 20//20 
f 20//20 19//19 7//7 
f 11//11 21//21 20//20 
f 20//20 9//9 11//11 
f 13//13 22//22 21//21 
f 21//21 11//11 13//13 
f 15//15 23//23 22//22 
f 22//22 13//13 15//15 
f 18//18 17//17 24//24 
f 24//24 25//25 18//18 
f 17//17 19//19 26//26 
f 26//26 24//24 17//17 
f 19//19 20//20 27//27 
f 27//27 26//26 19//19 
f 21//21 28//28 27//27 
f 27//27 20//20 21//21 
f 22//22 29//29 28//28 
f 28//28 21//21 22//22 
f 23//23 30//30 29//29 
f 29//29 22//22 23//23 
f 25//25 24//24 31//31 
f 31//31 32//32 25//25 
f 24//24 26//26 33//33 
f 33//33 31//31 24//24 
f 26//26 27//27 34//34 
f 34//34 33//33 26//26 
f 28//28 35//35 34//34 
f 34//34 27//27 28//28 
f 29//29 36//36 35//35 
f 35//35 28//28 29//29 
f 30//30 37//37 36//36 
f 36//36 29//29 30//30 
f 32//32 31//31 38//38 
f 38//38 39//39 32//32 
f 31//31 33//33 40//40 
f 40//40 38//38 31//31 
f 33//33 34//34 41//41 
f 41//41 40//40 33//33 
f 35//35 42//42 41//41 
f 41//41 34//34 35//35 
f 36//36 43//43 42//42 
f 42//42 35//35 36//36 
f 37//37 44//44 43//43 
f 43//43 36//36 37//37 
f 39//39 38//38 45//45 
f 45//45 46//46 39//39 
f 38//38 40//40 47//47 
f 47//47 45//45 38//38 
f 40//40 41//41 48//48 
f 48//48 47//47 40//40 
f 42//42 49//49 48//48 
f 48//48 41//41 42//42 
f 43//43 50//50 49//49 
f 49//49 42//42 43//43 
f 44//44 51//51 50//50 
f 50//50 43//43 44//44 
# 74 faces

